<svg xmlns="http://www.w3.org/2000/svg" width="193.307" height="204.502" viewBox="0 0 193.307 204.502">
  <g id="DecoShape" transform="translate(-1564.051 -105.498)">
    <path id="Intersection_95" data-name="Intersection 95" d="M41.764,167.707,6.355,133.513A20,20,0,0,1,.84,114.3L20,37.278A20,20,0,0,1,33.9,22.877l76.3-21.834a20,20,0,0,1,19.4,4.841l38.488,37.168V159.707a8,8,0,0,1-8,8Z" transform="translate(1589.266 142.292)" fill="#ffffff"/>
    <path id="Intersection_96" data-name="Intersection 96" d="M173.335,193.306a16.48,16.48,0,0,1-2.195-.158l-114.015-16a16.3,16.3,0,0,1-7.749-3.285q-.132-.1-.261-.208a16.254,16.254,0,0,1-4.8-6.507L1.179,60.364a16.217,16.217,0,0,1-1.1-7.624q.03-.307.071-.614l.012-.085a16.214,16.214,0,0,1,3.279-7.718L38.073,0h18.95L19.771,47.669a14.11,14.11,0,0,0-1.966,13.975l37.58,93.029a14.163,14.163,0,0,0,11.163,8.712l99.333,13.943a14.167,14.167,0,0,0,13.135-5.3L204.5,139.413v24.251l-18.284,23.4a16.2,16.2,0,0,1-4.808,4.139q-.442.25-.9.472a16.383,16.383,0,0,1-7.1,1.633Z" transform="translate(1757.357 105.498) rotate(90)" fill="#ffffff"/>
  </g>
</svg>
